{
    "asset" : {
        "generator" : "Khronos glTF Blender I/O v3.3.32",
        "version" : "2.0"
    },
    "extensionsUsed" : [
        "KHR_materials_specular",
        "KHR_materials_ior"
    ],
    "scene" : 0,
    "scenes" : [
        {
            "name" : "Scene",
            "nodes" : [
                0
            ]
        }
    ],
    "nodes" : [
        {
            "mesh" : 0,
            "name" : "Teapot"
        }
    ],
    "materials" : [
        {
            "doubleSided" : true,
            "extensions" : {
                "KHR_materials_specular" : {
                    "specularColorFactor" : [
                        1.1950148563690848,
                        1.1950148563690848,
                        1.1950148563690848
                    ]
                },
                "KHR_materials_ior" : {
                    "ior" : 1.4500000476837158
                }
            },
            "name" : "Material.teapot",
            "pbrMetallicRoughness" : {
                "baseColorFactor" : [
                    0.8000000715255737,
                    0.28507670760154724,
                    0.13682202994823456,
                    1
                ],
                "metallicFactor" : 0,
                "roughnessFactor" : 0.35039371252059937
            }
        }
    ],
    "meshes" : [
        {
            "name" : "Mesh",
            "primitives" : [
                {
                    "attributes" : {
                        "POSITION" : 0,
                        "NORMAL" : 1,
                        "TEXCOORD_0" : 2
                    },
                    "indices" : 3,
                    "material" : 0
                }
            ]
        }
    ],
    "accessors" : [
        {
            "bufferView" : 0,
            "componentType" : 5126,
            "count" : 4350,
            "max" : [
                3.434000015258789,
                3.1500000953674316,
                2.0069773197174072
            ],
            "min" : [
                -3,
                0,
                -2.006976842880249
            ],
            "type" : "VEC3"
        },
        {
            "bufferView" : 1,
            "componentType" : 5126,
            "count" : 4350,
            "type" : "VEC3"
        },
        {
            "bufferView" : 2,
            "componentType" : 5126,
            "count" : 4350,
            "type" : "VEC2"
        },
        {
            "bufferView" : 3,
            "componentType" : 5123,
            "count" : 20340,
            "type" : "SCALAR"
        }
    ],
    "bufferViews" : [
        {
            "buffer" : 0,
            "byteLength" : 52200,
            "byteOffset" : 0,
            "target" : 34962
        },
        {
            "buffer" : 0,
            "byteLength" : 52200,
            "byteOffset" : 52200,
            "target" : 34962
        },
        {
            "buffer" : 0,
            "byteLength" : 34800,
            "byteOffset" : 104400,
            "target" : 34962
        },
        {
            "buffer" : 0,
            "byteLength" : 40680,
            "byteOffset" : 139200,
            "target" : 34963
        }
    ],
    "buffers" : [
        {
            "byteLength" : 179880,
            "uri" : "data:application/octet-stream;base64,"
        }
    ]
}
